<?xml version="1.0" encoding="UTF-8" standalone="no"?><!DOCTYPE svg PUBLIC "-//W3C//DTD SVG 1.1//EN" "http://www.w3.org/Graphics/SVG/1.1/DTD/svg11.dtd"><svg width="100%" height="100%" viewBox="0 0 1735 415" version="1.1" xmlns="http://www.w3.org/2000/svg" xmlns:xlink="http://www.w3.org/1999/xlink" xml:space="preserve" xmlns:serif="http://www.serif.com/" style="fill-rule:evenodd;clip-rule:evenodd;stroke-linejoin:round;stroke-miterlimit:2;"><path d="M222.672,22.376c21.558,12.553 38.203,23.468 37.112,24.287c-1.092,0.819 -8.187,5.185 -15.827,9.278l-13.917,7.641l-24.833,-14.463l-25.105,-14.19l-41.751,24.014c-22.649,13.098 -46.117,26.469 -51.574,29.471c-5.731,3.274 -10.097,6.822 -9.551,7.913c0.273,1.365 19.92,13.372 43.388,26.743l42.57,24.559l68.766,-39.84l68.766,-39.568l59.489,33.291l-0,211.211l-39.023,22.376c-21.557,12.28 -39.84,22.377 -40.932,22.377c-1.091,-0 -1.91,-7.914 -1.91,-17.465l-0,-17.464l25.924,-14.736l25.924,-14.463l-0,-172.461l-13.372,-7.095c-7.367,-4.093 -14.462,-7.368 -15.827,-7.368c-1.637,0 -32.473,17.192 -68.766,38.204c-36.566,21.012 -67.402,38.203 -69.039,38.203c-5.458,0 -151.996,-85.958 -150.086,-87.868c4.912,-4.639 163.457,-94.963 166.731,-94.963c2.183,-0 21.285,10.097 42.843,22.376Zm-193.201,200.296l0.546,70.676l32.473,18.284c17.737,10.369 33.019,18.556 34.11,18.556c0.819,-0 1.638,-30.836 1.638,-68.221c-0,-37.658 0.818,-68.221 1.637,-68.221c0.819,0 8.186,4.094 16.373,8.733l14.736,9.005l-0,139.988l49.118,27.834l13.644,-7.367l13.372,-7.641l1.637,-133.712l40.932,-23.741c22.65,-13.099 42.024,-23.741 43.116,-24.014c1.091,0 1.91,8.187 1.364,18.01l-0.819,18.011l-51.847,29.471l-2.729,134.258l-27.288,16.1c-15.009,8.732 -28.926,15.827 -30.836,16.1c-1.91,0 -43.388,-22.922 -92.234,-51.302l-88.414,-51.029l0,-176.555l14.463,8.187l14.19,7.913l0.818,70.677Z" style="fill:#15d689;"/><path d="M538.647,301.881l-52.8,-186.667l32.267,0l39.2,145.867l42.4,-145.867l28.266,0l42.134,145.867l39.2,-145.867l32.266,0l-52.8,186.667l-35.466,-0l-39.467,-136.267l-39.733,136.267l-35.467,-0Z" style="fill:#fff;fill-rule:nonzero;"/><path d="M770.38,247.481c2.134,10.133 7.023,17.911 14.667,23.333c7.645,5.423 16.978,8.134 28,8.134c15.289,-0 26.756,-5.511 34.4,-16.534l23.733,13.867c-13.155,19.378 -32.622,29.067 -58.4,29.067c-21.688,-0 -39.2,-6.623 -52.533,-19.867c-13.333,-13.244 -20,-30 -20,-50.267c0,-19.911 6.578,-36.577 19.733,-50c13.156,-13.422 30.045,-20.133 50.667,-20.133c19.556,-0 35.6,6.844 48.133,20.533c12.534,13.689 18.8,30.311 18.8,49.867c0,3.022 -0.355,7.022 -1.066,12l-106.134,-0Zm-0.266,-23.467l78.4,0c-1.956,-10.844 -6.445,-19.022 -13.467,-24.533c-7.022,-5.511 -15.244,-8.267 -24.667,-8.267c-10.666,0 -19.555,2.934 -26.666,8.8c-7.111,5.867 -11.645,13.867 -13.6,24Z" style="fill:#fff;fill-rule:nonzero;"/><path d="M978.38,165.081c18.312,-0 33.956,6.756 46.934,20.267c12.978,13.511 19.466,30.133 19.466,49.866c0,19.556 -6.488,36.134 -19.466,49.734c-12.978,13.6 -28.622,20.4 -46.934,20.4c-20.266,-0 -35.822,-7.556 -46.666,-22.667l-0,19.2l-28.8,-0l-0,-186.667l28.8,0l-0,72.267c10.844,-14.933 26.4,-22.4 46.666,-22.4Zm-34.666,100.8c8,8 18.044,12 30.133,12c12.089,-0 22.133,-4.044 30.133,-12.133c8,-8.089 12,-18.267 12,-30.534c0,-12.266 -4,-22.444 -12,-30.533c-8,-8.089 -18.044,-12.133 -30.133,-12.133c-12.089,-0 -22.133,4.044 -30.133,12.133c-8,8.089 -12,18.267 -12,30.533c-0,12.267 4,22.489 12,30.667Z" style="fill:#fff;fill-rule:nonzero;"/><path d="M1134.91,305.348c-17.956,-0 -33.2,-4.089 -45.734,-12.267c-12.533,-8.178 -21.288,-19.378 -26.266,-33.6l26.4,-15.467c7.466,20.978 22.933,31.467 46.4,31.467c11.555,-0 20.222,-2.267 26,-6.8c5.778,-4.533 8.666,-10.444 8.666,-17.733c0,-7.645 -3.111,-13.467 -9.333,-17.467c-6.222,-4 -17.244,-8.4 -33.067,-13.2c-8.888,-2.667 -16.088,-5.156 -21.6,-7.467c-5.511,-2.311 -11.333,-5.555 -17.466,-9.733c-6.134,-4.178 -10.711,-9.378 -13.734,-15.6c-3.022,-6.222 -4.533,-13.511 -4.533,-21.867c0,-16.533 5.867,-29.644 17.6,-39.333c11.733,-9.689 25.867,-14.533 42.4,-14.533c14.933,-0 28,3.644 39.2,10.933c11.2,7.289 19.822,17.333 25.867,30.133l-25.867,14.934c-7.822,-17.423 -20.889,-26.134 -39.2,-26.134c-8.889,0 -16,2.089 -21.333,6.267c-5.334,4.178 -8,9.822 -8,16.933c-0,6.934 2.711,12.4 8.133,16.4c5.422,4 15.245,8.223 29.467,12.667c7.111,2.311 12.311,4.044 15.6,5.2c3.289,1.156 7.911,2.978 13.866,5.467c5.956,2.489 10.445,4.977 13.467,7.466c3.022,2.489 6.267,5.6 9.733,9.334c3.467,3.733 5.912,8 7.334,12.8c1.422,4.8 2.133,10.222 2.133,16.266c0,16.889 -6.089,30.267 -18.267,40.134c-12.177,9.866 -28.133,14.8 -47.866,14.8Z" style="fill:#fff;fill-rule:nonzero;"/><path d="M1251.98,247.481c2.134,10.133 7.023,17.911 14.667,23.333c7.645,5.423 16.978,8.134 28,8.134c15.289,-0 26.756,-5.511 34.4,-16.534l23.733,13.867c-13.155,19.378 -32.622,29.067 -58.4,29.067c-21.688,-0 -39.2,-6.623 -52.533,-19.867c-13.333,-13.244 -20,-30 -20,-50.267c0,-19.911 6.578,-36.577 19.733,-50c13.156,-13.422 30.045,-20.133 50.667,-20.133c19.556,-0 35.6,6.844 48.133,20.533c12.534,13.689 18.8,30.311 18.8,49.867c0,3.022 -0.355,7.022 -1.066,12l-106.134,-0Zm-0.266,-23.467l78.4,0c-1.956,-10.844 -6.445,-19.022 -13.467,-24.533c-7.022,-5.511 -15.244,-8.267 -24.667,-8.267c-10.666,0 -19.555,2.934 -26.666,8.8c-7.111,5.867 -11.645,13.867 -13.6,24Z" style="fill:#fff;fill-rule:nonzero;"/><path d="M1413.31,190.948c7.289,-16.534 20.978,-24.8 41.066,-24.8l0,31.2c-11.022,-0.711 -20.622,1.911 -28.8,7.866c-8.177,5.956 -12.266,15.778 -12.266,29.467l-0,67.2l-28.8,-0l-0,-133.333l28.8,-0l-0,22.4Z" style="fill:#fff;fill-rule:nonzero;"/><path d="M1502.91,143.214c-3.556,3.556 -7.822,5.334 -12.8,5.334c-4.978,-0 -9.289,-1.823 -12.934,-5.467c-3.644,-3.644 -5.466,-7.956 -5.466,-12.933c-0,-4.978 1.778,-9.289 5.333,-12.934c3.556,-3.644 7.911,-5.466 13.067,-5.466c5.155,-0 9.511,1.822 13.066,5.466c3.556,3.645 5.334,7.956 5.334,12.934c-0,4.977 -1.867,9.333 -5.6,13.066Zm-27.2,158.667l-0,-133.333l28.8,-0l-0,133.333l-28.8,-0Z" style="fill:#fff;fill-rule:nonzero;"/><path d="M1643.45,168.548l28.8,-0l0,133.333l-28.8,-0l0,-19.2c-10.844,15.111 -26.4,22.667 -46.667,22.667c-18.311,-0 -33.955,-6.8 -46.933,-20.4c-12.978,-13.6 -19.467,-30.178 -19.467,-49.734c0,-19.733 6.489,-36.355 19.467,-49.866c12.978,-13.511 28.622,-20.267 46.933,-20.267c20.267,-0 35.823,7.467 46.667,22.4l0,-18.933Zm-72.267,97.333c8,8 18.045,12 30.134,12c12.089,-0 22.133,-4.044 30.133,-12.133c8,-8.089 12,-18.267 12,-30.534c0,-12.266 -4,-22.444 -12,-30.533c-8,-8.089 -18.044,-12.133 -30.133,-12.133c-12.089,-0 -22.134,4.044 -30.134,12.133c-8,8.089 -12,18.267 -12,30.533c0,12.267 4,22.489 12,30.667Z" style="fill:#fff;fill-rule:nonzero;"/><rect x="1705.85" y="107.214" width="28.8" height="194.667" style="fill:#fff;fill-rule:nonzero;"/></svg>