<svg data-v-1084b650="" xmlns="http://www.w3.org/2000/svg" viewBox="0 0 300 300"><!----> <!----> <rect data-v-1084b650="" fill="#ffffff" x="0" y="0" width="300px" height="300px" class="logo-background-square"></rect> <!----> <g data-v-1084b650="" id="d7502212-c2b5-47a9-9e9a-6de306647d47" fill="#000000" transform="matrix(3.6999999999999993,0,0,3.6999999999999993,33.209496116638206,162.3025005578995)"><path d="M11.32 3.82L9.14 11.07L7.07 3.82L5.83 3.82L3.75 11.07L1.57 3.82L0 3.82L3.08 13.15L4.33 13.15L6.45 5.96L8.56 13.15L9.81 13.15L12.88 3.82ZM20.07 9.70C20.07 7.73 18.74 6.36 16.81 6.36C14.83 6.36 13.40 7.89 13.40 9.84C13.40 11.80 14.82 13.31 16.99 13.31C18.13 13.31 19.09 12.92 19.69 12.25L18.71 11.46C18.29 11.94 17.72 12.19 16.98 12.19C15.74 12.19 14.99 11.33 14.89 10.15L20.07 10.15ZM16.81 7.50C17.85 7.50 18.52 8.12 18.67 9.17L14.95 9.17C15.15 8.17 15.84 7.50 16.81 7.50ZM25.07 6.36C24.12 6.36 23.39 6.72 22.88 7.32L22.88 3.24L21.47 3.24L21.47 13.15L22.62 13.15L22.79 12.25C23.30 12.91 24.08 13.31 25.07 13.31C26.79 13.31 28.16 12.00 28.16 9.84C28.16 7.69 26.79 6.36 25.07 6.36ZM24.73 12.12C23.49 12.12 22.69 11.14 22.69 9.84C22.69 8.55 23.49 7.55 24.73 7.55C25.93 7.55 26.72 8.55 26.72 9.84C26.72 11.14 25.93 12.12 24.73 12.12ZM32.58 13.34C34.04 13.34 35.76 12.59 35.76 10.65C35.76 9.17 34.61 8.31 33.19 7.82C31.79 7.31 31.27 6.91 31.27 6.14C31.27 5.40 31.92 4.87 32.75 4.87C33.48 4.87 34.01 5.13 34.64 5.70L35.60 4.71C34.93 4.08 34.08 3.59 32.75 3.59C31.16 3.59 29.74 4.64 29.74 6.15C29.74 7.86 30.90 8.46 32.45 9.01C33.40 9.35 34.18 9.79 34.18 10.70C34.18 11.61 33.31 12.06 32.49 12.06C31.59 12.06 30.84 11.72 30.17 10.89L29.12 11.90C29.95 12.83 31.03 13.34 32.58 13.34ZM43.66 9.70C43.66 7.73 42.34 6.36 40.41 6.36C38.43 6.36 37.00 7.89 37.00 9.84C37.00 11.80 38.41 13.31 40.59 13.31C41.72 13.31 42.69 12.92 43.28 12.25L42.31 11.46C41.88 11.94 41.31 12.19 40.57 12.19C39.33 12.19 38.59 11.33 38.49 10.15L43.66 10.15ZM40.41 7.50C41.45 7.50 42.12 8.12 42.26 9.17L38.54 9.17C38.75 8.17 39.43 7.50 40.41 7.50ZM48.15 6.36C47.37 6.36 46.84 6.74 46.46 7.41L46.29 6.53L45.06 6.53L45.06 13.15L46.48 13.15L46.48 9.70C46.48 8.62 47.05 7.66 48.08 7.66C48.31 7.66 48.53 7.70 48.72 7.79L49.15 6.58C48.97 6.47 48.59 6.36 48.15 6.36ZM50.88 5.26C51.39 5.26 51.80 4.86 51.80 4.36C51.80 3.86 51.39 3.46 50.88 3.46C50.39 3.46 49.98 3.86 49.98 4.36C49.98 4.86 50.39 5.26 50.88 5.26ZM50.21 13.15L51.60 13.15L51.60 6.53L50.21 6.53ZM58.74 6.53L58.55 7.45C58.04 6.78 57.27 6.36 56.25 6.36C54.53 6.36 53.16 7.69 53.16 9.84C53.16 12.00 54.53 13.31 56.25 13.31C57.25 13.31 58.03 12.89 58.54 12.22L58.74 13.15L59.91 13.15L59.91 6.53ZM56.58 12.12C55.39 12.12 54.60 11.14 54.60 9.84C54.60 8.55 55.39 7.55 56.58 7.55C57.82 7.55 58.63 8.55 58.63 9.84C58.63 11.14 57.82 12.12 56.58 12.12ZM61.72 13.15L63.13 13.15L63.13 3.24L61.72 3.24Z"></path></g> <linearGradient data-v-1084b650="" gradientTransform="rotate(25)" id="bca9ff0e-cff8-cde9-7360-e38a7e63fb02" x1="0%" y1="0%" x2="100%" y2="0%"><stop data-v-1084b650="" offset="0%" style="stop-color: rgb(65, 226, 150); stop-opacity: 1;"></stop> <stop data-v-1084b650="" offset="100%" style="stop-color: rgb(0, 196, 238); stop-opacity: 1;"></stop></linearGradient> <g data-v-1084b650="" id="efadc882-f2ad-7f4b-759c-e67e6e81050a" fill="url(#bca9ff0e-cff8-cde9-7360-e38a7e63fb02)" stroke="none" transform="matrix(0.2491333427429199,0,0,0.2491333427429199,107.3223167794656,88.33949794769288)"><svg xmlns="http://www.w3.org/2000/svg" xmlns:xlink="http://www.w3.org/1999/xlink" version="1.1" x="0px" y="0px" viewBox="0 0 32 32" enable-background="new 0 0 32 32" xml:space="preserve"><g><rect x="6.333" y="1.5" width="9.097" height="3"></rect><rect x="6.333" y="8" width="15.36" height="3"></rect><rect x="6.333" y="14.5" width="24.159" height="3"></rect><rect x="6.333" y="21" width="15.36" height="3"></rect><rect x="6.333" y="27.5" width="9.097" height="3"></rect><rect x="0" y="0" width="3" height="32"></rect></g></svg></g></svg>