<svg id="Layer_1" data-name="Layer 1" xmlns="http://www.w3.org/2000/svg" xmlns:xlink="http://www.w3.org/1999/xlink" viewBox="0 0 300 94"><defs><style>.cls-1{fill:url(#linear-gradient);}.cls-2{fill:url(#linear-gradient-2);}.cls-3{fill:url(#linear-gradient-3);}.cls-4{fill:url(#linear-gradient-4);}.cls-5{fill:url(#linear-gradient-5);}.cls-6{fill:url(#linear-gradient-6);}</style><linearGradient id="linear-gradient" x1="-80.51" y1="273.53" x2="-79.51" y2="273.53" gradientTransform="matrix(10.93, 1.68, 5.1, -3.6, -474.02, 1150.82)" gradientUnits="userSpaceOnUse"><stop offset="0" stop-color="#41e296"/><stop offset="1" stop-color="#00c4ee"/></linearGradient><linearGradient id="linear-gradient-2" x1="-83.54" y1="272.11" x2="-82.54" y2="272.11" gradientTransform="matrix(18.45, 1.68, 8.61, -3.6, -760.66, 1159.44)" xlink:href="#linear-gradient"/><linearGradient id="linear-gradient-3" x1="-85.15" y1="271.36" x2="-84.15" y2="271.36" gradientTransform="matrix(29.03, 1.68, 13.53, -3.6, -1163.37, 1168.06)" xlink:href="#linear-gradient"/><linearGradient id="linear-gradient-4" x1="-83.54" y1="272.11" x2="-82.54" y2="272.11" gradientTransform="matrix(18.45, 1.68, 8.61, -3.6, -760.66, 1176.67)" xlink:href="#linear-gradient"/><linearGradient id="linear-gradient-5" x1="-80.51" y1="273.53" x2="-79.51" y2="273.53" gradientTransform="matrix(10.93, 1.68, 5.1, -3.6, -474.02, 1185.29)" xlink:href="#linear-gradient"/><linearGradient id="linear-gradient-6" x1="-75.4" y1="302.06" x2="-74.4" y2="302.06" gradientTransform="matrix(3.6, 17.93, 1.68, -38.45, -203.37, 13000.61)" xlink:href="#linear-gradient"/></defs><title>Artboard 1</title><g id="c32d7929-c758-99d9-443c-1ff065e055ec"><path d="M126.52,35.48l-6.1,20.3-5.8-20.3h-3.47l-5.82,20.3-6.11-20.3H94.83l8.62,26.13H107l5.94-20.13,5.91,20.13h3.5l8.59-26.13ZM151,52c0-5.52-3.72-9.35-9.12-9.35a9.43,9.43,0,0,0-9.55,9.74c0,5.49,4,9.72,10.05,9.72a10,10,0,0,0,7.56-3l-2.74-2.21a6.13,6.13,0,0,1-4.85,2c-3.47,0-5.57-2.41-5.85-5.71H151Zm-9.12-6.16c2.91,0,4.78,1.73,5.2,4.67H136.69C137.25,47.66,139.18,45.79,141.9,45.79ZM165,42.6a7.71,7.71,0,0,0-6.13,2.68V33.86h-3.95V61.61h3.22l.48-2.52a7.77,7.77,0,0,0,6.38,3c4.82,0,8.66-3.67,8.66-9.72S169.84,42.6,165,42.6Zm-1,16.12c-3.47,0-5.71-2.74-5.71-6.38s2.24-6.41,5.71-6.41,5.57,2.8,5.57,6.41S167.43,58.72,164.07,58.72Zm22,3.42c4.09,0,8.91-2.1,8.91-7.53,0-4.15-3.22-6.55-7.2-7.93s-5.38-2.54-5.38-4.7,1.82-3.56,4.15-3.56a7.34,7.34,0,0,1,5.29,2.33L194.51,38a10.91,10.91,0,0,0-8-3.14c-4.45,0-8.43,2.94-8.43,7.17,0,4.79,3.25,6.47,7.59,8,2.66.95,4.84,2.18,4.84,4.73s-2.43,3.81-4.73,3.81a7.92,7.92,0,0,1-6.5-3.28l-2.94,2.83C178.69,60.71,181.71,62.14,186.05,62.14Zm31-10.19c0-5.52-3.7-9.35-9.1-9.35a9.43,9.43,0,0,0-9.55,9.74c0,5.49,3.95,9.72,10,9.72a9.91,9.91,0,0,0,7.53-3l-2.71-2.21a6.22,6.22,0,0,1-4.88,2c-3.47,0-5.54-2.41-5.82-5.71h14.48ZM208,45.79c2.91,0,4.78,1.73,5.18,4.67H202.74C203.33,47.66,205.23,45.79,208,45.79Zm21.67-3.19a5.13,5.13,0,0,0-4.73,2.94l-.48-2.47H221V61.61h4V52c0-3,1.6-5.71,4.48-5.71a4.18,4.18,0,0,1,1.79.36l1.21-3.39A5.92,5.92,0,0,0,229.65,42.6Zm7.64-3.08A2.52,2.52,0,1,0,234.77,37,2.54,2.54,0,0,0,237.29,39.52Zm-1.87,22.09h3.89V43.07h-3.89ZM259.3,43.07l-.53,2.58a7.75,7.75,0,0,0-6.44-3c-4.82,0-8.65,3.72-8.65,9.74s3.83,9.72,8.65,9.72A7.77,7.77,0,0,0,258.74,59l.56,2.61h3.28V43.07Zm-6.05,15.65c-3.33,0-5.54-2.74-5.54-6.38s2.21-6.41,5.54-6.41,5.74,2.8,5.74,6.41S256.72,58.72,253.25,58.72Zm14.39,2.89h3.95V33.86h-3.95Z"/></g><g id="dd3b708d-f65d-6e48-498a-f48c308d4368"><rect class="cls-1" x="41.33" y="28.78" width="12.06" height="3.98"/><rect class="cls-2" x="41.33" y="37.39" width="20.36" height="3.98"/><rect class="cls-3" x="41.33" y="46.01" width="32.03" height="3.98"/><rect class="cls-4" x="41.33" y="54.63" width="20.36" height="3.98"/><rect class="cls-5" x="41.33" y="63.24" width="12.06" height="3.98"/><rect class="cls-6" x="32.93" y="26.79" width="3.98" height="42.42"/></g></svg>